<svg width="468" height="218" viewBox="0 0 468 218" fill="none" xmlns="http://www.w3.org/2000/svg">
<path d="M312.348 178.368C279.277 208.919 221.624 207.082 185.788 179.75C168.381 193.381 138.278 189.509 121.87 174.716C113.072 185.308 98.9076 191.295 85.0868 190.276C71.266 189.256 53.1204 168.862 46.0122 157.097C31.3745 164.855 11.3216 157.145 3.79203 142.506C-3.74121 127.864 0.468978 108.915 11.8354 96.9379C23.2055 84.9571 40.501 79.5616 57.0941 80.2156C73.6946 80.877 89.1418 84.0146 103.473 92.3207C84.1147 87.1738 74.1973 63.1454 80.4478 44.3071C86.6911 25.4669 105.254 12.5613 124.764 7.9982C153.969 1.17645 186.593 11.41 206.48 33.6345C218.782 17.4522 250.885 17.2695 261.161 34.7784C269.984 28.7245 282.493 28.9475 292.177 33.5361C301.865 38.1244 308.718 48.083 309.48 58.681C328.136 44.1671 364.275 65.8801 372.123 88.0318C380.088 82.8191 394.331 89.9399 402.359 95.0554C410.391 100.167 414.912 110.181 413.411 119.506C421.935 108.063 446.132 114.659 457.055 123.901C467.974 133.139 470.694 149.793 465.346 162.987C460.001 176.182 447.792 185.888 434.267 190.686C420.734 195.486 405.974 195.844 391.677 194.403C365.587 191.771 334.686 191.954 312.348 178.368Z" fill="#CCF3FF"/>
<path d="M176.203 120.458C183.037 114.93 192.167 112.272 200.943 113.263C209.711 114.257 217.669 118.049 223.062 124.962C232.155 119.485 241.522 113.91 252.001 112.045C262.484 110.172 274.479 112.809 280.885 121.222C276.841 110.432 268.572 102.612 257.198 100.202C245.824 97.7931 233.316 101.501 225.154 109.701C217.003 105.105 206.628 102.883 197.409 104.623C188.194 106.368 182.065 113.214 176.203 120.458Z" fill="#E6F9FF"/>
<path d="M171.065 88.3691C177.933 80.2743 188.146 75.0345 198.792 74.1436C209.441 73.2511 220.393 76.717 228.544 83.5534C222.212 71.8355 208.672 63.9239 195.299 65.1348C181.921 66.3446 175.142 75.7116 171.065 88.3691Z" fill="#E6F9FF"/>
<path d="M309.665 110.671C313.978 105.588 320.388 102.298 327.075 101.739C333.762 101.179 340.637 103.354 345.756 107.643C341.779 100.291 333.277 95.3227 324.883 96.0824C316.481 96.8436 312.223 102.722 309.665 110.671Z" fill="#E6F9FF"/>
<path d="M18.0121 132.295C22.3295 127.21 28.7391 123.924 35.4259 123.359C42.1126 122.801 48.9916 124.98 54.1074 129.268C50.1338 121.913 41.6321 116.944 33.2302 117.704C24.832 118.465 20.5774 124.348 18.0121 132.295Z" fill="#E6F9FF"/>
<path d="M121.374 39.7028C125.692 34.6213 132.101 31.3309 138.788 30.7712C145.475 30.2129 152.354 32.3879 157.473 36.6793C153.496 29.3245 144.994 24.356 136.592 25.1157C128.194 25.8769 123.936 31.7594 121.374 39.7028Z" fill="#E6F9FF"/>
<path d="M109.014 76.6953C113.327 71.6097 119.74 68.3223 126.423 67.7596C133.114 67.1999 139.989 69.3748 145.109 73.6677C141.131 66.3115 132.63 61.343 124.235 62.1041C115.833 62.8639 111.575 68.7434 109.014 76.6953Z" fill="#E6F9FF"/>
<path d="M448.461 148.1C443.663 155.101 436.174 160.257 427.864 162.27C419.555 164.29 408.839 163.17 401.306 159.155C395.802 164.34 387.899 166.917 380.362 165.985C372.825 165.057 362.442 160.487 358.398 154.121C349.057 163.301 334.024 166.275 321.833 161.361C309.639 156.443 299.862 140.247 299.67 127.224C297.378 141.128 290.809 154.546 280.142 163.875C269.481 173.205 254.574 178.068 240.587 175.44C226.599 172.816 210.956 162.279 207.519 148.612C203.168 159.064 193.081 166.969 181.799 168.76C170.514 170.552 161.905 163.369 154.464 154.791C146.547 156.622 138.318 158.457 130.364 156.802C122.402 155.146 113.919 148.042 113.493 140.01C103.436 154.944 84.2846 163.334 66.3387 160.669C61.8328 160.001 57.3342 158.651 53.6193 156.031C49.9081 153.409 44.2009 147.552 43.7056 143.066C40.5932 147.563 34.9784 150.242 29.4819 149.859C23.9816 149.479 19.9193 146.071 17.4723 141.187C13.4321 143.65 8.24239 144.13 3.79193 142.511C11.3252 157.145 31.3744 164.855 46.0121 157.097C53.1203 168.862 71.2659 189.256 85.0867 190.276C98.9076 191.295 113.072 185.308 121.87 174.716C138.278 189.509 168.381 193.381 185.788 179.75C221.624 207.082 279.277 208.919 312.348 178.368C334.686 191.954 365.587 191.771 391.677 194.403C405.974 195.844 420.734 195.486 434.266 190.686C447.792 185.889 460.001 176.179 465.349 162.987C466.776 159.463 467.582 155.694 467.855 151.888C461.22 151.654 454.659 150.469 448.461 148.1Z" fill="#BCE0EB"/>
<path d="M250.811 145.289C244.715 150.221 236.572 152.586 228.754 151.702C220.933 150.817 213.839 147.439 209.03 141.274C200.921 146.159 192.57 151.128 183.226 152.795C173.881 154.459 163.184 152.108 157.473 144.609C161.077 154.229 168.448 161.199 178.591 163.35C188.734 165.499 199.886 162.19 207.16 154.878C214.431 158.977 223.683 160.958 231.904 159.408C240.117 157.855 245.584 151.749 250.811 145.289Z" fill="#BCE0EB"/>
<path d="M384.461 137.538C377.061 146.258 366.064 151.895 354.598 152.861C343.124 153.819 331.329 150.09 322.55 142.722C329.374 155.343 343.952 163.861 358.357 162.56C372.766 161.255 380.07 151.171 384.461 137.538Z" fill="#BCE0EB"/>
<path d="M316.98 119.895C312.666 124.981 306.257 128.267 299.57 128.822C292.887 129.385 286.004 127.21 280.885 122.918C284.866 130.273 293.363 135.241 301.765 134.482C310.16 133.721 314.422 127.842 316.98 119.895Z" fill="#BCE0EB"/>
<path d="M139.967 124.962C132.567 133.678 121.574 139.319 110.104 140.28C98.6342 141.241 86.8353 137.509 78.0564 130.149C84.8799 142.766 99.4585 151.288 113.867 149.98C128.272 148.677 135.58 138.595 139.967 124.962Z" fill="#BCE0EB"/>
<path d="M59.005 198.659C63.6033 199.946 67.8245 201.024 72.0754 201.68C76.3041 202.362 80.4921 202.692 84.6801 202.695C88.8681 202.692 93.0562 202.373 97.2848 201.698C101.536 201.054 105.761 199.99 110.366 198.722C107.491 202.538 103.384 205.317 98.9334 207.215C94.4534 209.079 89.5593 210.018 84.669 210.007C79.7824 209.997 74.892 209.05 70.4194 207.167C65.9764 205.258 61.8734 202.479 59.005 198.659Z" fill="#CCF3FF"/>
<path d="M130.356 198.216C133.957 198.853 137.076 199.493 140.181 199.903C143.26 200.344 146.254 200.625 149.256 200.772C152.261 200.908 155.263 200.918 158.371 200.775C161.502 200.67 164.666 200.337 168.318 200.063C166.163 203.024 163.025 205.047 159.65 206.384C156.253 207.698 152.549 208.256 148.89 208.07C145.234 207.89 141.612 206.973 138.359 205.342C135.136 203.679 132.208 201.368 130.356 198.216Z" fill="#CCF3FF"/>
<path d="M206.107 9.1535C209.637 5.88175 214.084 3.76091 218.734 2.43415C223.402 1.14358 228.341 0.73046 233.19 1.16187C238.047 1.59328 242.827 2.8769 247.185 4.97508C251.521 7.10726 255.509 9.98745 258.385 13.8409C253.757 12.5255 249.517 11.2857 245.244 10.3976C240.99 9.47487 236.772 8.83216 232.521 8.44535C228.278 8.05672 224.008 7.93972 219.658 8.08962C215.285 8.20405 210.894 8.67091 206.107 9.1535Z" fill="#CCF3FF"/>
<path d="M325.245 38.2448C330.091 35.7156 335.754 34.7972 341.317 35.09C346.891 35.3755 352.443 36.8336 357.467 39.3299C362.505 41.8021 367.007 45.3225 370.585 49.5711C374.156 53.7942 376.802 58.8354 377.649 64.1907C374.019 60.1662 370.415 56.6817 366.526 53.63C362.645 50.5838 358.494 48.0389 354.158 45.8635C349.808 43.7215 345.257 41.9662 340.463 40.7082C335.658 39.4586 330.679 38.6989 325.245 38.2448Z" fill="#CCF3FF"/>
<path d="M322.617 199.064C331.865 202.155 341.006 204.794 350.273 206.714C359.536 208.577 368.862 209.876 378.248 210.3C387.622 210.862 397.04 210.552 406.451 209.671C415.87 208.739 425.24 207.082 434.773 204.991C426.36 209.924 416.993 213.261 407.349 215.308C397.705 217.403 387.744 218.061 377.856 217.602C367.972 217.005 358.143 215.305 348.776 212.201C339.41 209.148 330.461 204.846 322.617 199.064Z" fill="#CCF3FF"/>
</svg>
