<svg width="363" height="159" viewBox="0 0 363 159" fill="none" xmlns="http://www.w3.org/2000/svg">
<path d="M362.555 118.489C362.555 124.249 353.581 128.915 342.513 128.915C331.442 128.915 322.469 124.249 322.469 118.489C322.469 112.731 331.442 108.065 342.513 108.065C353.581 108.065 362.555 112.731 362.555 118.489Z" fill="#CCF3FF"/>
<path d="M206.565 129.734C196.893 141.577 181.122 149.191 164.823 149.89C148.522 150.589 132.3 144.964 121.423 134.004C116.367 140.281 107.69 144.045 99.0869 143.694C90.4882 143.341 82.8807 138.683 78.4746 132.02C70.7235 136.82 60.8585 138.767 51.5887 137.326C42.3189 135.884 34.7135 130.668 29.1992 123.803C23.3771 124.668 17.358 125.524 11.6406 124.217C5.92312 122.91 0.548395 118.835 0.0394491 113.539C-0.508489 107.859 4.75951 102.776 10.7581 100.966C16.7608 99.1544 23.4202 100.957 29.6835 101.774C28.2347 98.2281 29.4373 93.9348 32.5771 91.4294C35.7191 88.9259 40.3283 87.8498 44.0571 89.5767C43.7473 82.9445 48.2888 76.3363 55.0159 73.6294C61.7451 70.9244 70.2535 70.9595 75.5277 75.5967C64.4684 60.9862 68.5728 39.8691 81.6289 26.6638C94.685 13.4585 114.721 7.2903 134.305 6.10141C151.952 5.02902 170.368 7.78583 185.109 16.5943C199.852 25.4028 210.255 40.9138 209.007 56.8112C217.29 51.1959 230.381 52.5494 238.815 57.9779C247.254 63.4046 251.114 73.9678 247.909 82.8502C251.906 80.955 257.784 81.0807 261.769 83.0018C265.752 84.921 268.566 88.6911 269.036 92.7403C273.651 89.2864 279.067 88.6763 284.204 91.4701C289.339 94.2639 292.162 100.129 290.919 105.415C294.902 103.971 298.042 105.702 302.284 106.315C306.524 106.931 310.612 109.174 312.493 112.654C314.778 116.879 313.382 122.191 310.058 125.813C306.733 129.433 301.801 131.58 296.784 132.868C281.39 136.822 263.856 133.127 252.003 123.435C248.128 131.408 240.311 138.802 230.771 140.179C221.232 141.555 213.009 136.219 206.565 129.734Z" fill="#CCF3FF"/>
<path d="M293.866 113.955C289.722 117.509 283.769 119.279 278.09 118.639C272.414 118.001 264.597 114.863 261.55 110.5C254.517 116.795 243.197 118.837 234.013 115.464C224.832 112.093 217.468 100.983 217.323 92.0488C215.599 101.584 210.651 110.79 202.621 117.191C194.588 123.592 183.365 126.928 172.829 125.125C162.295 123.322 150.517 116.095 147.923 106.72C144.652 113.889 137.051 119.312 128.557 120.541C120.058 121.771 113.573 116.843 107.973 110.956C102.007 112.214 95.8137 113.475 89.8212 112.337C83.8268 111.2 77.4362 106.328 77.1181 100.818C69.5414 111.065 55.1206 116.819 41.6068 114.993C38.2083 114.532 34.8243 113.606 32.0271 111.809C29.23 110.012 24.9326 105.992 24.5612 102.915C22.2135 105.999 17.988 107.839 13.8466 107.576C10.4338 107.36 7.76802 105.72 5.89846 103.278C2.22091 105.751 -0.352558 109.49 0.0394126 113.539C0.548359 118.835 5.92309 122.91 11.6405 124.217C17.358 125.524 23.3771 124.668 29.1992 123.803C34.7155 130.668 42.3189 135.884 51.5887 137.326C60.8585 138.767 70.7234 136.82 78.4746 132.02C82.8807 138.683 90.4882 143.341 99.0869 143.694C107.69 144.045 116.366 140.281 121.423 134.004C132.3 144.964 148.522 150.589 164.823 149.89C181.122 149.191 196.893 141.577 206.565 129.734C213.009 136.219 221.232 141.555 230.771 140.179C240.311 138.802 248.128 131.408 252.005 123.435C263.856 133.127 281.39 136.822 296.784 132.868C301.804 131.58 306.733 129.433 310.058 125.813C312.512 123.137 313.903 119.545 313.548 116.145C307.338 117.435 299.446 116.66 293.866 113.955Z" fill="#BCE0EB"/>
<path d="M132.501 90.3809C136.294 87.5853 141.364 86.243 146.234 86.744C151.102 87.2451 155.521 89.1625 158.515 92.6589C163.563 89.8891 168.766 87.0695 174.586 86.1246C180.402 85.1817 187.063 86.5129 190.619 90.7674C188.372 85.3111 183.784 81.3562 177.469 80.1377C171.154 78.9192 164.21 80.7941 159.678 84.9413C155.153 82.6172 149.391 81.4929 144.275 82.3749C139.158 83.2568 135.756 86.7163 132.501 90.3809Z" fill="#E6F9FF"/>
<path d="M129.646 74.1526C133.461 70.0589 139.13 67.4112 145.042 66.9582C150.954 66.5089 157.035 68.2599 161.56 71.7175C158.045 65.7916 150.528 61.7922 143.103 62.4042C135.676 63.0162 131.912 67.7514 129.646 74.1526Z" fill="#E6F9FF"/>
<path d="M174.664 59.9525C177.06 57.3806 180.617 55.7184 184.331 55.4356C188.042 55.1527 191.861 56.2509 194.701 58.4216C192.495 54.7015 187.775 52.1906 183.112 52.5752C178.448 52.9579 176.086 55.9329 174.664 59.9525Z" fill="#E6F9FF"/>
<path d="M227.969 92.6589C230.366 90.0888 233.927 88.4248 237.637 88.1419C241.35 87.859 245.169 88.9591 248.009 91.1298C245.803 87.4097 241.083 84.8969 236.418 85.2815C231.756 85.6661 229.394 88.6392 227.969 92.6589Z" fill="#E6F9FF"/>
<path d="M79.7019 96.368C82.0968 93.796 85.6554 92.1338 89.3699 91.8509C93.0823 91.5681 96.8994 92.6663 99.7417 94.8389C97.5356 91.1169 92.8155 88.606 88.1509 88.9906C83.4883 89.3752 81.1241 92.3465 79.7019 96.368Z" fill="#E6F9FF"/>
<path d="M95.1981 68.247C97.593 65.6769 101.152 64.0147 104.864 63.7299C108.576 63.447 112.396 64.5472 115.238 66.7179C113.028 62.9977 108.31 60.4868 103.647 60.8714C98.9844 61.2541 96.6182 64.2292 95.1981 68.247Z" fill="#E6F9FF"/>
<path d="M184.233 102.627C179.219 106.321 172.519 108.096 166.085 107.432C159.65 106.77 153.811 104.235 149.856 99.6165C143.185 103.277 136.312 107.001 128.624 108.251C120.935 109.497 112.135 107.737 107.433 102.116C110.403 109.325 116.465 114.551 124.811 116.161C133.156 117.773 142.333 115.294 148.319 109.814C154.299 112.885 161.913 114.371 168.675 113.206C175.435 112.042 179.931 107.467 184.233 102.627Z" fill="#BCE0EB"/>
<path d="M226.482 85.6883C222.373 90.0981 216.268 92.9511 209.9 93.4355C203.532 93.9218 196.983 92.0358 192.109 88.312C195.896 94.6928 203.991 99.0027 211.989 98.3426C219.988 97.6826 224.044 92.5831 226.482 85.6883Z" fill="#BCE0EB"/>
<path d="M257.71 101.059C254.355 104.661 249.368 106.99 244.167 107.388C238.965 107.785 233.613 106.243 229.634 103.202C232.726 108.414 239.339 111.934 245.873 111.396C252.405 110.858 255.719 106.691 257.71 101.059Z" fill="#BCE0EB"/>
<path d="M71.1463 98.4092C67.0357 102.819 60.9324 105.672 54.5645 106.156C48.1985 106.643 41.6459 104.755 36.7739 101.033C40.5602 107.414 48.6542 111.724 56.6536 111.064C64.6531 110.403 68.7083 105.304 71.1463 98.4092Z" fill="#BCE0EB"/>
<path d="M74.3334 145.743C77.3584 147.08 80.2889 148.128 83.2913 148.868C86.2875 149.603 89.3289 150.014 92.3784 150.156C95.428 150.284 98.496 150.153 101.56 149.689C104.628 149.221 107.659 148.444 110.82 147.392C108.632 149.72 105.63 151.414 102.393 152.475C99.1507 153.542 95.6435 154.017 92.1712 153.849C88.7009 153.695 85.2634 152.909 82.1564 151.556C79.0555 150.208 76.2563 148.252 74.3334 145.743Z" fill="#CCF3FF"/>
<path d="M129.24 149.912C133.542 151.12 137.736 152.196 141.978 153.004C146.218 153.786 150.47 154.377 154.753 154.625C159.032 154.94 163.335 154.912 167.657 154.694C171.981 154.45 176.305 153.939 180.759 153.314C176.876 155.393 172.533 156.752 168.078 157.554C163.612 158.382 159.013 158.58 154.453 158.31C149.902 157.974 145.383 157.175 141.102 155.768C136.823 154.387 132.747 152.473 129.24 149.912Z" fill="#CCF3FF"/>
<path d="M179.279 0.633911C184.272 0.79847 189.238 2.16487 193.735 4.30043C198.26 6.41934 202.29 9.37209 205.707 12.8038C209.065 16.278 211.815 20.2496 213.588 24.5595C215.385 28.8417 216.272 33.453 215.829 37.9386C214.562 33.5972 212.869 29.5332 210.665 25.7336C208.437 21.9525 205.775 18.4117 202.631 15.2481C199.542 12.042 195.97 9.22423 192.083 6.76141C188.171 4.31708 183.905 2.29983 179.279 0.633911Z" fill="#CCF3FF"/>
<path d="M240.022 49.4763C242.844 49.2525 245.739 49.9662 248.268 51.2568C250.802 52.5455 253.027 54.4259 254.593 56.7112C256.173 58.9892 257.045 61.6239 257.197 64.2439C257.357 66.8565 256.77 69.5116 255.286 71.6879C255.098 69.1548 254.71 66.8658 254.032 64.6914C253.353 62.5207 252.358 60.5034 251.104 58.6582C249.834 56.8184 248.272 55.1193 246.419 53.5994C244.559 52.0833 242.456 50.752 240.022 49.4763Z" fill="#CCF3FF"/>
<path d="M57.4109 65.1963C54.7657 65.6067 52.4549 66.239 50.3616 67.1783C48.2745 68.0991 46.4255 69.2917 44.9007 70.7246C43.38 72.1594 42.1343 73.8697 41.1985 75.7871C40.2504 77.7119 39.6409 79.8141 39.292 82.2122C37.9376 80.0933 37.6236 77.4696 38.1018 74.9754C38.5943 72.4737 39.92 70.0534 41.9414 68.1638C43.9546 66.2723 46.5815 64.978 49.3335 64.4308C52.0793 63.9001 55.0037 64.0702 57.4109 65.1963Z" fill="#CCF3FF"/>
<path d="M258.802 137.066C262.826 138.633 266.803 139.885 270.861 140.749C274.918 141.583 279.02 142.104 283.141 142.169C287.262 142.3 291.389 141.978 295.489 141.34C299.591 140.673 303.636 139.619 307.751 138.253C304.521 140.941 300.521 142.886 296.279 144.136C292.035 145.416 287.52 145.941 283.03 145.863C278.546 145.719 274.068 144.975 269.906 143.491C265.748 142.037 261.87 139.904 258.802 137.066Z" fill="#CCF3FF"/>
</svg>
